<?xml version="1.0" standalone="no"?><!DOCTYPE svg PUBLIC "-//W3C//DTD SVG 1.1//EN" "http://www.w3.org/Graphics/SVG/1.1/DTD/svg11.dtd"><svg t="1596165994720" class="icon" viewBox="0 0 1120 1024" version="1.1" xmlns="http://www.w3.org/2000/svg" p-id="4467" xmlns:xlink="http://www.w3.org/1999/xlink" width="218.75" height="200"><defs><style type="text/css"></style></defs><path d="M384 870.4c42.4128 0 76.8 34.3872 76.8 76.8s-34.3872 76.8-76.8 76.8-76.8-34.3872-76.8-76.8 34.3872-76.8 76.8-76.8z m460.8 0c42.4128 0 76.8 34.3872 76.8 76.8s-34.3872 76.8-76.8 76.8-76.8-34.3872-76.8-76.8 34.3872-76.8 76.8-76.8zM123.1488 0A76.8 76.8 0 0 1 198.336 61.1392l12.896 61.888A38.4 38.4 0 0 0 248.8256 153.6h788.3968c42.4128 0 76.8 34.3872 76.8 76.8a76.8 76.8 0 0 1-0.8512 11.392l-53.76 358.4A76.8 76.8 0 0 1 983.4624 665.6h-632.768a38.4 38.4 0 0 0-38.0992 43.1616l3.2 25.6A38.4 38.4 0 0 0 353.9008 768H934.4a38.4 38.4 0 0 1 0 76.8H320.5248a76.8 76.8 0 0 1-75.648-63.5584L127.1616 108.5824A38.4 38.4 0 0 0 89.3376 76.8H38.4A38.4 38.4 0 1 1 38.4 0h84.7488z" fill="#000000" p-id="4468"></path><path d="M991.0144 397.376a25.6 25.6 0 0 1 19.6032 30.4384l-0.8192 3.904-3.2 16.768a264.576 264.576 0 0 1-2.496 11.8528 25.6 25.6 0 0 1-49.8048-11.8784l0.8064-3.5904c0.2752-1.2992 0.5632-2.7264 0.8768-4.3328l2.24-11.84c0.832-4.384 1.5616-8.0384 2.3616-11.712a25.6 25.6 0 0 1 30.432-19.6032zM921.6 211.2c56.5568 0 102.4 45.8432 102.4 102.4a25.6 25.6 0 0 1-51.168 1.28L972.8 313.6a51.2 51.2 0 0 0-51.2-51.2 25.6 25.6 0 1 1 0-51.2z" fill="#FFFFFF" p-id="4469"></path></svg>